<?xml version="1.0" encoding="UTF-8"?>
<svg width="28px" height="28px" viewBox="0 0 28 28" version="1.1" xmlns="http://www.w3.org/2000/svg" xmlns:xlink="http://www.w3.org/1999/xlink">
    <title>uers 2</title>
    <g id="组件" stroke="none" stroke-width="1" fill="none" fill-rule="evenodd" opacity="0.45">
        <g id="_top/2" transform="translate(-1397.000000, -11.000000)" fill="#FFFFFF">
            <g id="用户" transform="translate(1391.000000, 5.000000)">
                <g id="uers-2" transform="translate(6.000000, 6.000000)">
                    <path d="M14,28 C6.2680135,28 5.32907052e-15,21.7319865 5.32907052e-15,14 C5.32907052e-15,6.2680135 6.2680135,0 14,0 C21.7319865,0 28,6.2680135 28,14 C28,21.7319865 21.7319865,28 14,28 Z M6.00075,21.6545 C6.00075,21.6545 21.99925,21.6545 21.99925,21.69475 L21.99925,17.437 C21.99925,15.1445 16.667,14 14,14 C11.333,14 6.00075,15.14625 6.00075,17.437 L6.00075,21.6545 Z M14,11.99975 C15.4488717,12.0300584 16.8008452,11.2744324 17.5341717,10.0244804 C18.2674983,8.77452849 18.2674983,7.22572151 17.5341717,5.97576956 C16.8008452,4.72581762 15.4488717,3.9701916 14,4.0005 C11.8236669,4.0460259 10.0831667,5.82331578 10.0831667,8.000125 C10.0831667,10.1769342 11.8236669,11.9542241 14,11.99975 L14,11.99975 Z" id="uers"></path>
                </g>
            </g>
        </g>
    </g>
</svg>